<svg version="1.1" viewBox="0.0 0.0 1024.0 1024.0" fill="none" stroke="none" stroke-linecap="square" stroke-miterlimit="10" xmlns:xlink="http://www.w3.org/1999/xlink" xmlns="http://www.w3.org/2000/svg"><clipPath id="p.0"><path d="m0 0l1024.0 0l0 1024.0l-1024.0 0l0 -1024.0z" clip-rule="nonzero"/></clipPath><g clip-path="url(#p.0)"><path fill="#ffffff" d="m0 0l1024.0 0l0 1024.0l-1024.0 0z" fill-rule="evenodd"/><defs><linearGradient id="p.1" gradientUnits="userSpaceOnUse" gradientTransform="matrix(29.666970816803346 0.0 0.0 29.666970816803346 0.0 0.0)" spreadMethod="pad" x1="2.472061712334528" y1="2.424711141925435" x2="2.4719544064696897" y2="32.09168195853473"><stop offset="0.0" stop-color="#009905"/><stop offset="1.0" stop-color="#006203"/></linearGradient></defs><path fill="url(#p.1)" d="m73.338585 71.937004l877.3229 0l0 880.126l-877.3229 0z" fill-rule="evenodd"/><path stroke="#bebebe" stroke-width="24.0" stroke-linejoin="round" stroke-linecap="butt" d="m73.338585 71.937004l877.3229 0l0 880.126l-877.3229 0z" fill-rule="evenodd"/><defs><linearGradient id="p.2" gradientUnits="userSpaceOnUse" gradientTransform="matrix(15.79654648672117 0.0 0.0 15.79654648672117 0.0 0.0)" spreadMethod="pad" x1="12.958661559956075" y1="24.510846160330065" x2="12.958604444245886" y2="40.307392646947974"><stop offset="0.0" stop-color="#ffffff"/><stop offset="1.0" stop-color="#efefef"/></linearGradient></defs><path fill="url(#p.2)" d="m298.16412 387.18893c-17.908264 0 -33.202667 2.7962952 -45.883286 8.388916c-12.645264 5.5925903 -22.341156 13.7438965 -29.087677 24.453918c-6.7111664 10.673462 -10.066757 22.151093 -10.066757 34.43286c0 19.080627 7.1526947 35.25531 21.458115 48.524048c10.1727295 9.430634 27.869064 17.38089 53.088974 23.8508c19.603699 5.0443115 32.160675 8.553345 37.6709 10.527222c8.053436 2.9608154 13.687286 6.451599 16.90158 10.472412c3.2496338 3.984253 4.8744507 8.827576 4.8744507 14.529785c0 8.882385 -3.8501282 16.649902 -11.550293 23.302551c-7.6648865 6.616028 -19.073883 9.924072 -34.22702 9.924072c-14.30542 0 -25.679108 -3.7283936 -34.121063 -11.185181c-8.406616 -7.456787 -13.987518 -19.135437 -16.74263 -35.03601l-45.777313 4.605713c3.0730133 26.976074 12.503983 47.5188 28.292923 61.628235c15.788925 14.072876 38.41269 21.109314 67.871216 21.109314c20.239502 0 37.141083 -2.9241943 50.704742 -8.772705c13.56366 -5.88501 24.05429 -14.858765 31.471893 -26.921204c7.417633 -12.0625 11.126434 -25.002258 11.126434 -38.819275c0 -15.242554 -3.1083374 -28.036072 -9.325012 -38.380554c-6.1813354 -10.3810425 -14.764587 -18.550629 -25.749725 -24.508759c-10.949829 -5.99469 -27.86905 -11.78833 -50.75772 -17.38092c-22.888672 -5.5925903 -37.30005 -10.965881 -43.23413 -16.119843c-4.662506 -4.057373 -6.993744 -8.937195 -6.993744 -14.639465c0 -6.2505493 2.4902039 -11.240021 7.470581 -14.968414c7.7355347 -5.81192 18.43811 -8.7178955 32.107697 -8.7178955c13.245758 0 23.171234 2.7232056 29.776459 8.169586c6.6405334 5.409851 10.967499 14.310486 12.980835 26.701935l47.04892 -2.1383667c-0.74176025 -22.151062 -8.512604 -39.860962 -23.31253 -53.1297c-14.764587 -13.268707 -36.770203 -19.903076 -66.016815 -19.903076z" fill-rule="evenodd"/><defs><linearGradient id="p.3" gradientUnits="userSpaceOnUse" gradientTransform="matrix(15.79654648672117 0.0 0.0 15.79654648672117 0.0 0.0)" spreadMethod="pad" x1="12.958661559956075" y1="24.510846160330065" x2="12.958604444245886" y2="40.307392646947974"><stop offset="0.0" stop-color="#ffffff"/><stop offset="1.0" stop-color="#efefef"/></linearGradient></defs><path fill="url(#p.3)" d="m515.28845 387.18893c-17.908234 0 -33.202667 2.7962952 -45.88327 8.388916c-12.645264 5.5925903 -22.341156 13.7438965 -29.087677 24.453918c-6.7111816 10.673462 -10.066772 22.151093 -10.066772 34.43286c0 19.080627 7.15271 35.25531 21.45813 48.524048c10.1727295 9.430634 27.86905 17.38089 53.08896 23.8508c19.60373 5.0443115 32.160675 8.553345 37.67093 10.527222c8.053406 2.9608154 13.687256 6.451599 16.90155 10.472412c3.2496338 3.984253 4.8744507 8.827576 4.8744507 14.529785c0 8.882385 -3.8500977 16.649902 -11.550293 23.302551c-7.664856 6.616028 -19.073853 9.924072 -34.22699 9.924072c-14.30545 0 -25.679108 -3.7283936 -34.121094 -11.185181c-8.406616 -7.456787 -13.987488 -19.135437 -16.742615 -35.03601l-45.777313 4.605713c3.072998 26.976074 12.503998 47.5188 28.292908 61.628235c15.78894 14.072876 38.41269 21.109314 67.87125 21.109314c20.239502 0 37.141052 -2.9241943 50.704712 -8.772705c13.56366 -5.88501 24.054321 -14.858765 31.471924 -26.921204c7.4176025 -12.0625 11.126404 -25.002258 11.126404 -38.819275c0 -15.242554 -3.1083374 -28.036072 -9.325012 -38.380554c-6.1813354 -10.3810425 -14.764587 -18.550629 -25.749695 -24.508759c-10.949829 -5.99469 -27.86908 -11.78833 -50.75775 -17.38092c-22.888641 -5.5925903 -37.30002 -10.965881 -43.2341 -16.119843c-4.662506 -4.057373 -6.9937744 -8.937195 -6.9937744 -14.639465c0 -6.2505493 2.4902039 -11.240021 7.4706116 -14.968414c7.735504 -5.81192 18.43808 -8.7178955 32.107666 -8.7178955c13.245789 0 23.171265 2.7232056 29.77649 8.169586c6.640503 5.409851 10.967468 14.310486 12.980835 26.701935l47.04889 -2.1383667c-0.74176025 -22.151062 -8.512573 -39.860962 -23.3125 -53.1297c-14.764587 -13.268707 -36.770203 -19.903076 -66.016846 -19.903076z" fill-rule="evenodd"/><defs><linearGradient id="p.4" gradientUnits="userSpaceOnUse" gradientTransform="matrix(15.79654648672117 0.0 0.0 15.79654648672117 0.0 0.0)" spreadMethod="pad" x1="12.958661559956075" y1="24.510846160330065" x2="12.958604444245886" y2="40.307392646947974"><stop offset="0.0" stop-color="#ffffff"/><stop offset="1.0" stop-color="#efefef"/></linearGradient></defs><path fill="url(#p.4)" d="m634.1823 391.30115l0 40.79309l69.14282 0l0 200.34668l47.04889 0l0 -200.34668l68.98389 0l0 -40.79309z" fill-rule="evenodd"/></g></svg>